<!-- Generated by IcoMoon.io -->
<svg version="1.1" xmlns="http://www.w3.org/2000/svg" width="23" height="23" viewBox="0 0 480 448">
<title></title>
<g id="icomoon-ignore">
</g>
<path fill="#000" d="M208 272v-32c0-4.5-3.5-8-8-8h-48v-48c0-4.5-3.5-8-8-8h-32c-4.5 0-8 3.5-8 8v48h-48c-4.5 0-8 3.5-8 8v32c0 4.5 3.5 8 8 8h48v48c0 4.5 3.5 8 8 8h32c4.5 0 8-3.5 8-8v-48h48c4.5 0 8-3.5 8-8zM352 288c0-17.75-14.25-32-32-32s-32 14.25-32 32 14.25 32 32 32 32-14.25 32-32zM416 224c0-17.75-14.25-32-32-32s-32 14.25-32 32 14.25 32 32 32 32-14.25 32-32zM480 256c0 70.75-57.25 128-128 128-32.5 0-62-12.25-84.5-32h-55c-22.5 19.75-52 32-84.5 32-70.75 0-128-57.25-128-128s57.25-128 128-128h224c70.75 0 128 57.25 128 128z"></path>
</svg>
