<!-- Generated by IcoMoon.io -->
<svg version="1.1" xmlns="http://www.w3.org/2000/svg" width="23" height="23" viewBox="0 0 768 768">
<title></title>
<g id="icomoon-ignore">
</g>
<path d="M224 32c-26.496 0-50.56 10.784-67.872 28.128s-28.128 41.376-28.128 67.872v512c0 26.496 10.784 50.56 28.128 67.872s41.376 28.128 67.872 28.128h320c26.496 0 50.56-10.784 67.872-28.128s28.128-41.376 28.128-67.872v-512c0-26.496-10.784-50.56-28.128-67.872s-41.376-28.128-67.872-28.128zM224 96h320c8.832 0 16.8 3.552 22.624 9.376s9.376 13.792 9.376 22.624v512c0 8.832-3.552 16.8-9.376 22.624s-13.792 9.376-22.624 9.376h-320c-8.832 0-16.8-3.552-22.624-9.376s-9.376-13.792-9.376-22.624v-512c0-8.832 3.552-16.8 9.376-22.624s13.792-9.376 22.624-9.376zM384 608c17.664 0 32-14.336 32-32s-14.336-32-32-32-32 14.336-32 32 14.336 32 32 32z"></path>
</svg>
