<!-- Generated by IcoMoon.io -->
<svg version="1.1" xmlns="http://www.w3.org/2000/svg" width="23" height="23" viewBox="0 0 768 768">
<title></title>
<g id="icomoon-ignore">
</g>
<path d="M493.024 223.776l120.64-120.192c2.592-2.528 4.864-5.76 6.56-9.472 7.264-16.128 0.064-35.072-16.032-42.304-8.416-3.776-17.024-7.040-25.824-9.792-50.624-15.744-106.88-13.696-158.816 9.824-56.352 25.504-97.056 71.488-117.248 125.088-17.728 46.944-19.744 99.968-2.784 150.304l-206.304 206.304c-19.488 19.488-29.248 45.12-29.248 70.624s9.76 51.136 29.248 70.624 45.12 29.248 70.624 29.248 51.136-9.76 70.624-29.248l206.336-206.336c1.6 0.544 3.2 1.056 4.832 1.568 50.624 15.744 106.88 13.696 158.816-9.824 56.352-25.504 97.056-71.488 117.248-125.088s19.968-115.008-5.536-171.36c-1.44-3.296-3.648-6.56-6.528-9.44-12.512-12.512-32.768-12.512-45.248 0l-120.192 120.64zM447.552 179.2c-12.256 12.48-18.336 28.8-18.304 44.992 0.064 16.064 6.144 32.224 18.272 44.608l51.424 51.456c12.736 12.48 29.024 18.56 45.216 18.528 16.064-0.064 32.224-6.144 44.608-18.272l82.368-82.368c2.88 25.472-0.48 50.976-9.312 74.432-14.464 38.368-43.488 71.104-83.744 89.344-37.12 16.8-77.184 18.272-113.44 7.008-6.304-1.952-12.512-4.32-18.528-7.040-12.384-5.568-26.464-2.624-35.776 6.56l-221.12 221.12c-7.008 7.008-16.128 10.496-25.376 10.496s-18.368-3.488-25.376-10.496-10.496-16.128-10.496-25.376 3.488-18.368 10.496-25.376l221.12-221.12c9.632-9.632 11.84-23.872 6.528-35.808-18.208-40.256-18.4-84.032-3.936-122.4s43.488-71.104 83.744-89.344c27.264-12.352 56.16-16.416 83.936-13.216z"></path>
</svg>
