<?xml version="1.0" encoding="UTF-8"?>
<!DOCTYPE svg PUBLIC "-//W3C//DTD SVG 1.1//EN" "http://www.w3.org/Graphics/SVG/1.1/DTD/svg11.dtd">
<!-- Creator: CorelDRAW 2020 (64 Bit) -->
<svg xmlns="http://www.w3.org/2000/svg" xml:space="preserve" width="91.1698mm" height="98.9668mm" version="1.1" style="shape-rendering:geometricPrecision; text-rendering:geometricPrecision; image-rendering:optimizeQuality; fill-rule:evenodd; clip-rule:evenodd"
viewBox="0 0 9116.98 9896.68"
 xmlns:xlink="http://www.w3.org/1999/xlink"
 xmlns:xodm="http://www.corel.com/coreldraw/odm/2003">
 <defs>
  <style type="text/css">
   <![CDATA[
    .fil1 {fill:none}
    .fil0 {fill:#ED3237}
   ]]>
  </style>
   <clipPath id="id0">
    <path d="M-9.55 -2.96l9116.98 0 0 9896.7 -9116.98 0 0 -9896.7z"/>
   </clipPath>
 </defs>
 <g id="Camada_x0020_1">
  <metadata id="CorelCorpID_0Corel-Layer"/>
  <g>
  </g>
  <g style="clip-path:url(#id0)">
   <g>
    <path class="fil0" d="M-1346.32 353.78c0.52,96.92 44.47,299.9 45.13,361.31 0.66,61.33 10.54,495.97 0,541.95 -10.55,45.99 -13.77,437.2 -22.6,1467.82 -8.83,1030.61 14.16,2939.65 22.6,3996.81 8.43,1057.23 -42.76,1627.19 -22.6,1716.19 20.03,89.01 -26.62,476.01 0,564.56 26.62,88.55 -33.21,292.13 0,383.9 33.2,91.78 16.14,172.09 22.6,270.98 6.39,98.89 -1.45,190.34 0,293.51 1.45,103.17 -5.74,121.82 0,203.25 5.73,81.43 -72.54,112.46 0,158.05 72.4,45.73 1082.53,-13.17 1151.64,22.6 69.11,35.78 973.03,-25.96 1038.78,0 65.75,25.96 292.65,-16.27 338.71,0 46.05,16.27 402.81,-13.04 429.03,0 26.22,12.98 -15.62,-5.93 135.45,0 151.01,5.93 42.96,24.71 180.72,0 137.7,-24.7 61.54,-767.14 61.41,-809.57l-8.17 -386.34 -31.36 -1212.06c-7.98,-325.26 -8.24,-396.95 -34.86,-485.23 -26.68,-88.22 -79.58,-193.1 -139.21,-317.62 -59.56,-124.52 -125.9,-268.74 -192.11,-412.89 -66.28,-144.22 -132.56,-288.44 -205.49,-462.17 -72.87,-173.67 -152.52,-376.92 -232.11,-567.13 -79.65,-190.07 -159.18,-366.97 -238.83,-566.99 -79.65,-199.96 -159.3,-422.91 -219.06,-596.71 -59.89,-173.66 -99.81,-298.25 -133.08,-413.28 -33.28,-115.03 -59.96,-220.45 -73.53,-322.11 -13.57,-101.79 -13.97,-199.82 -1.12,-288.24 12.71,-88.61 38.61,-167.47 84.2,-259.51 45.59,-92.1 110.88,-197.52 163.06,-283.1l136.91 -223.81c45.72,-72.53 97.9,-151.53 156.73,-230.59 58.77,-78.99 124.06,-158.05 202.66,-210.89 78.6,-52.84 170.31,-79.52 255.69,-106.01l301.62 -99.88c137.69,-46.44 334.42,-113.05 518.04,-172.81l518.17 -166.29c163.98,-53.36 321.25,-106.46 472.18,-153.04 150.88,-46.72 295.16,-86.64 472.32,-133.29l563.96 -146.85c177.16,-46.65 321.51,-86.64 485.5,-126.69 163.98,-40.13 347.8,-80.25 541.36,-120.44 193.5,-40.25 396.95,-80.44 570.42,-103.24 173.54,-22.99 317.03,-28.46 450.58,-42.1 133.41,-13.64 256.81,-35.57 359.06,-40.12 102.18,-4.55 183.09,8.17 217.15,21.21 34,12.92 20.89,26.23 -21.67,72.41l-199.37 217.48c-84.99,92.3 -183.02,197.78 -258.33,270.32 -75.17,72.6 -127.55,112.13 -153.64,145.01 -26.09,32.94 -26.02,59.23 13.51,85.45 39.46,26.09 118.39,51.98 243.31,97.51 124.98,45.33 296.08,110.35 453.87,181.97 157.92,71.55 302.8,149.68 434.37,228.02 131.63,78.27 250.16,156.6 342.39,221.96 92.24,65.22 158.12,117.4 230.59,182.76 72.54,65.36 151.67,143.89 250.56,245.28 98.89,101.4 217.68,225.72 290.28,304.19 72.47,78.53 98.89,111.21 118.66,140.79 19.83,29.38 33.13,55.61 13.44,68.85 -19.64,13.18 -72.21,13.31 -118.2,3.69 -45.92,-9.69 -85.45,-29.19 -151.2,-48.62 -65.75,-19.44 -157.73,-38.68 -245.48,-54.75 -87.82,-16.01 -171.43,-28.86 -253.52,-41.58 -82.09,-12.78 -162.54,-25.69 -265.12,-31.75 -102.58,-6.13 -227.16,-5.67 -328.95,1.38 -101.86,6.99 -180.98,20.29 -207.4,40.13 -26.36,19.83 0.06,46.05 46.25,85.25l177.82 146.92c65.95,55.6 131.9,114.37 191.19,170.04l164.77 156.87 151.67 137.37c46.18,42.43 85.71,81.63 118.72,120.96 32.94,39.2 59.43,78.47 33.14,85.12 -26.22,6.72 -105.22,-19.24 -177.49,-45.13 -72.34,-25.96 -138.16,-51.98 -197.39,-68.12 -59.16,-16.21 -111.67,-22.6 -157.66,-35.51 -45.98,-12.98 -85.51,-32.42 -141.38,-48.63 -55.87,-16.27 -128.14,-29.12 -187.31,-42.03 -59.1,-12.85 -105.21,-25.76 -157.79,-38.67 -52.57,-12.92 -111.74,-25.83 -157.72,-32.15 -46.06,-6.39 -78.8,-6.26 -95.14,26.68 -16.27,32.88 -16.01,98.56 -15.81,156.47 0.33,57.72 0.46,107.66 -5.93,140.6 -6.39,32.81 -19.57,48.49 -25.69,140.72 -6.2,92.17 -5.47,260.77 -5.08,382.79 0.6,121.88 0.86,197.12 -12.05,237.64 -12.98,40.52 -39.27,46.31 -65.49,42.62 -26.36,-3.62 -52.64,-16.6 -85.58,-29.64 -32.81,-12.92 -72.21,-25.96 -117.21,-38.94l-147.84 -38.74 -161.09 -38.74c-53.76,-12.98 -106.27,-25.83 -158.91,-32.15 -52.51,-6.33 -105.08,-6.13 -164.18,0.72 -59.03,6.72 -124.65,20.1 -177.03,53.11 -52.38,33.07 -91.64,85.71 -124.19,145.01 -32.48,59.22 -58.57,125.04 -84.66,177.68 -25.96,52.71 -52.11,92.17 -147.18,105.68 -95.2,13.51 -259.45,1.12 -549.67,-2.77 -290.21,-3.75 -706.2,1.12 -981.72,-1.64 -275.59,-2.71 -410.59,-13.05 -524.83,-13.05 -114.18,0 -207.67,10.34 -289.95,21.08 -82.29,10.87 -153.51,22.07 -208.66,40.85 -55.34,18.84 -94.6,45.2 -140.46,78.2 -45.85,33.01 -98.17,72.67 -137.43,105.68 -39.33,33.01 -65.42,59.36 -91.58,92.3 -26.16,32.88 -52.31,72.41 -52.05,111.81 0.13,39.46 26.49,78.73 52.97,111.47 26.36,32.68 52.71,58.97 85.65,85.06 33.01,26.09 72.47,52.18 105.48,71.74 32.81,19.57 59.23,32.55 78.93,39.01 19.7,6.59 32.81,6.59 45.92,-0.13 13.11,-6.59 26.15,-19.77 45.79,-42.89l78.47 -95.53c32.61,-39.53 71.81,-85.65 111.01,-128.54 39.26,-42.83 78.47,-82.36 130.91,-122.02 52.31,-39.6 117.93,-79.19 168.26,-85.25 50.34,-5.93 85.39,21.81 118.59,40.85 33.14,19.04 64.31,29.38 316.11,34.12 251.74,4.68 724.06,3.82 999.98,3.17l427.45 -1.32c72.21,-0.27 137.1,-0.46 182.83,12.38 45.72,12.98 72.07,39.2 85.91,196.67 13.9,157.59 15.09,446.55 22.33,604.15 7.19,157.59 20.43,183.81 40.26,223.14 19.9,39.27 46.25,91.71 85.84,130.98 39.67,39.2 92.24,65.35 144.88,91.38 52.71,26.02 105.35,52.05 140.07,65.03 34.65,12.97 51.65,12.91 76.95,12.78 25.37,-0.07 59.03,-0.2 94.08,6.19 35.12,6.39 71.42,19.44 125.97,25.76 54.55,6.33 127.22,6.06 188.76,-0.86 61.53,-6.72 112.07,-20.09 150.41,-26.88 38.34,-6.65 64.63,-6.78 87.49,-26.55 22.93,-19.76 42.5,-59.23 62,-98.82 19.57,-39.47 39.13,-78.93 61.99,-118.39 22.8,-39.53 48.82,-79 68.39,-121.76 19.57,-42.69 32.48,-88.81 52.05,-108.64 19.63,-19.7 45.99,-13.24 65.69,3.03 19.83,16.41 33.07,42.63 52.83,75.37 19.9,32.75 46.32,72.01 76.03,111.28 29.78,39.33 62.72,78.53 92.37,111.28 29.78,32.74 56.07,58.9 66.08,98.29 10.08,39.34 3.76,91.98 -5.93,137.96 -9.62,45.99 -22.73,85.32 -58.63,111.81 -36.04,26.42 -95.14,39.73 -142.51,53.03 -47.3,13.44 -83.01,26.69 -119.05,33.34 -36.04,6.79 -72.27,6.85 -110.22,13.57 -37.95,6.79 -77.42,20.03 -110.29,26.75 -32.88,6.79 -59.16,6.85 -72.21,29.91 -13.11,23.06 -12.85,68.98 -12.72,114.9 0.27,46.06 0.4,91.98 -19.17,121.62 -19.63,29.65 -58.9,42.89 -97.64,56.2 -38.67,13.31 -76.68,26.55 -109.49,33.27 -32.81,6.72 -60.42,6.79 -91.58,6.92 -31.1,0.2 -65.82,0.33 -98.7,-6.13 -32.87,-6.45 -63.77,-19.37 -92.5,-32.41 -28.65,-13.05 -55.01,-26.02 -78,-32.48 -22.99,-6.46 -42.63,-6.39 -69.05,-19.44 -26.28,-12.98 -59.29,-39.13 -88.87,-52.24 -29.65,-13.05 -55.81,-12.85 -68.98,-6.26 -13.18,6.65 -13.05,19.76 0.13,39.4 13.17,19.63 39.53,45.85 59.36,65.42l46.18 45.79c13.25,13.11 26.42,26.09 46.19,39.13 19.7,13.11 46.12,26.16 72.34,39.14 26.42,13.04 52.64,26.15 82.22,32.54 29.58,6.46 62.39,6.33 101.79,19.24 39.53,13.11 85.58,39.14 115.23,65.23 29.65,26.22 42.96,52.44 56.26,75.3 13.18,22.99 26.36,42.56 13.38,68.91 -13.05,26.36 -52.38,59.3 -85.06,88.95 -32.74,29.78 -58.9,56.06 -84.92,102.12 -26.09,46.11 -52.11,111.87 -71.62,157.98l-51.98 118.46 -65.09 164.45c-19.44,52.64 -32.42,91.97 -45.39,134.73 -12.92,42.76 -25.9,88.74 -59.04,121.69 -33,33 -86.24,52.9 -118.98,69.5 -32.75,16.54 -45.13,29.72 -77.55,36.44 -32.34,6.78 -84.92,6.91 -137.49,7.11l-164.19 0.73c-59.09,0.26 -124.71,0.46 -177.29,-5.87 -52.51,-6.32 -92.04,-19.3 -131.5,-32.28l-124.98 -38.87c-45.99,-12.98 -98.56,-25.83 -151.14,-45.33 -52.64,-19.5 -105.28,-45.59 -151.33,-65.09 -45.92,-19.5 -85.52,-32.48 -118.39,-45.53l-92.04 -39 -105.22 -39c-32.94,-12.92 -59.16,-26.03 -85.52,-32.48 -26.28,-6.39 -52.5,-6.33 -65.62,6.91 -13.11,13.18 -13.04,39.4 -6.32,72.21 6.65,32.88 19.96,72.21 33.34,111.54 13.31,39.34 26.61,78.67 39.86,108.18 13.24,29.45 26.42,49.09 39.72,75.31 13.18,26.22 26.42,59.03 43.09,101.59l56.33 144.28c19.96,49.22 39.8,95.07 56.4,140.93 16.6,45.85 35.84,260.57 55.67,296.47 19.83,36.11 -82.88,661.54 475.35,678.93 558.23,17.39 1561.23,2.24 2122.63,0 561.39,-2.24 383.04,35.84 429.03,22.53 45.92,-13.3 337.65,-2.57 406.43,-22.53 68.79,-19.96 576.28,36.44 654.88,0 78.6,-36.43 1457.67,89.6 1467.82,0 10.14,-89.6 -49.48,-124.58 22.53,-180.65 72.01,-56.07 23.19,-168.07 0,-270.98 -23.19,-102.91 0,-112.92 0,-203.25 0,-90.32 -55.21,-302.07 -22.53,-361.3 32.61,-59.23 -25.96,-392.4 0,-451.63 26.02,-59.17 -12.91,-507.77 0,-1716.13 12.91,-1208.3 14.69,-3646.78 0,-4855.01 -14.76,-1208.3 31.36,-1192.49 0,-1264.5 -31.43,-72.01 42.89,-260.17 0,-338.77 -42.89,-78.6 75.37,-560.27 22.53,-632.28 -52.84,-72.01 30.24,-934.69 -22.53,-993.52 -52.84,-58.84 -60.22,23.12 -112.93,-22.6 -52.7,-45.73 -189.15,61.73 -248.44,22.6 -59.23,-39.14 -22.53,0 -203.19,0 -180.58,0.06 -314.79,25.95 -383.9,0 -69.04,-25.96 -331.26,-9.69 -383.9,-22.6l-429.03 0c-55.81,-17.4 -542.22,8.63 -1625.81,0 -1083.58,-8.7 -3197.51,-8.9 -4267.85,0 -1070.41,8.76 -1467.03,-13.31 -1512.95,0l-293.57 0c-52.51,13.24 -263.73,-19.9 -316.11,0 -52.44,19.89 -270.32,-19.97 -316.18,0 -45.85,19.89 -254.3,-19.83 -293.57,0 -39.27,19.83 -209.11,-26.49 -248.38,0l-225.78 0c-45.86,33 -89.74,-39.66 -135.53,0 -45.85,39.53 -118.91,-42.83 -158.05,0l-135.52 0c-45.79,52.64 -23.98,215.37 -22.53,361.3 1.45,145.93 24.97,372.18 22.53,406.44 -2.44,34.26 -23.06,445.04 -22.53,541.95zm7212.57 4844.07c13.18,-19.7 26.23,-32.81 49.09,-46.05 22.92,-13.24 55.73,-26.55 88.61,-26.68 32.74,-0.13 65.75,12.91 101.86,25.83l115.09 38.87 118.4 39 111.8 38.94 91.97 39 105.29 39c32.87,12.98 59.29,25.96 79.06,58.7 19.83,32.75 33.27,85.26 33.4,137.83 0.2,52.58 -12.65,105.09 -25.63,157.66l-38.74 151.27c-12.98,45.99 -25.96,85.45 -39,118.39 -12.92,32.94 -25.96,59.16 -38.87,98.63 -12.98,39.53 -25.9,92.1 -38.88,131.5 -12.97,39.53 -26.02,65.75 -39,98.7 -12.98,32.87 -25.96,72.2 -45.59,111.67 -19.5,39.53 -45.52,79.06 -94.67,105.48 -49.22,26.48 -121.36,39.92 -193.64,40.25 -72.2,0.33 -144.54,-12.45 -200.41,-25.5 -55.87,-12.84 -95.34,-25.82 -128.15,-38.8 -32.94,-13.05 -59.29,-25.96 -79.12,-39.07 -19.7,-13.04 -32.75,-26.16 -46.05,-39.13 -13.18,-12.85 -26.29,-25.63 -33.47,-159.24 -7.12,-133.55 -8.11,-388.06 -2.11,-535.97 5.93,-147.9 18.91,-189.34 31.89,-219.91 13.04,-30.64 26.09,-50.4 32.54,-73.4 6.53,-22.99 6.46,-49.28 12.85,-75.63 6.46,-26.22 19.44,-52.58 32.42,-78.86 13.04,-26.36 26.08,-52.65 39.06,-72.48z"/>
   </g>
  </g>
  <polygon class="fil1" points="-9.55,-2.96 9107.43,-2.96 9107.43,9893.74 -9.55,9893.74 "/>
 </g>
</svg>
